<svg xmlns="http://www.w3.org/2000/svg" xmlns:xlink="http://www.w3.org/1999/xlink" viewBox="0 0 1160 720" font-family="'Segoe UI', system-ui, -apple-system, sans-serif">
  <defs>
    <linearGradient id="grad-networking" x1="0%" y1="100%" x2="100%" y2="0%">
      <stop offset="0%" stop-color="#4D27A8"/><stop offset="100%" stop-color="#A166FF"/>
    </linearGradient>
    <linearGradient id="grad-security" x1="0%" y1="100%" x2="100%" y2="0%">
      <stop offset="0%" stop-color="#BD0816"/><stop offset="100%" stop-color="#FF5252"/>
    </linearGradient>
    <linearGradient id="grad-compute" x1="0%" y1="100%" x2="100%" y2="0%">
      <stop offset="0%" stop-color="#C8511B"/><stop offset="100%" stop-color="#FF9900"/>
    </linearGradient>
    <linearGradient id="grad-storage" x1="0%" y1="100%" x2="100%" y2="0%">
      <stop offset="0%" stop-color="#1B660F"/><stop offset="100%" stop-color="#6CAE3E"/>
    </linearGradient>
    <linearGradient id="grad-database" x1="0%" y1="100%" x2="100%" y2="0%">
      <stop offset="0%" stop-color="#2E27AD"/><stop offset="100%" stop-color="#527FFF"/>
    </linearGradient>
    <linearGradient id="bg" x1="0" y1="0" x2="0" y2="1">
      <stop offset="0%" stop-color="#f8fafc"/><stop offset="100%" stop-color="#f1f5f9"/>
    </linearGradient>
    <linearGradient id="awsBg" x1="0" y1="0" x2="0" y2="1">
      <stop offset="0%" stop-color="#fffbeb"/><stop offset="100%" stop-color="#fef3c7"/>
    </linearGradient>
    <linearGradient id="ec2Bg" x1="0" y1="0" x2="0" y2="1">
      <stop offset="0%" stop-color="#fff7ed"/><stop offset="100%" stop-color="#ffedd5"/>
    </linearGradient>
    <marker id="arrow" viewBox="0 0 10 7" refX="10" refY="3.5" markerWidth="10" markerHeight="7" orient="auto-start-auto">
      <polygon points="0 0, 10 3.5, 0 7" fill="#64748b"/>
    </marker>
    <filter id="shadow" x="-4%" y="-4%" width="108%" height="112%">
      <feDropShadow dx="0" dy="2" stdDeviation="3" flood-color="#0f172a" flood-opacity="0.08"/>
    </filter>
  </defs>

  <!-- Background -->
  <rect width="1160" height="720" rx="16" fill="url(#bg)"/>

  <!-- Title -->
  <text x="580" y="38" text-anchor="middle" font-size="22" font-weight="700" fill="#0f172a" letter-spacing="0.5">System Architecture</text>
  <text x="580" y="58" text-anchor="middle" font-size="12" fill="#64748b">data.saadyaldram.com &#8212; Provisioned with Terraform on AWS</text>

  <!-- ===== USERS ===== -->
  <g filter="url(#shadow)">
    <rect x="24" y="212" width="105" height="80" rx="10" fill="#3d5a80"/>
    <text x="76" y="247" text-anchor="middle" font-size="22" fill="#fff">&#128100;</text>
    <text x="76" y="270" text-anchor="middle" font-size="12" font-weight="600" fill="#fff">Users</text>
    <text x="76" y="284" text-anchor="middle" font-size="9" fill="#93c5fd">Browser</text>
  </g>

  <!-- Arrow: Users to Route 53 -->
  <line x1="129" y1="252" x2="184" y2="252" stroke="#64748b" stroke-width="2" marker-end="url(#arrow)"/>

  <!-- ===== AWS CLOUD BOX ===== -->
  <rect x="168" y="78" width="972" height="450" rx="14" fill="url(#awsBg)" stroke="#f59e0b" stroke-width="1.5" stroke-dasharray="8 4" opacity="0.55"/>
  <rect x="180" y="86" width="120" height="22" rx="4" fill="#f59e0b"/>
  <text x="240" y="101" text-anchor="middle" font-size="11" font-weight="700" fill="#fff">AWS Cloud</text>

  <!-- ===== ROUTE 53 (AWS Icon) ===== -->
  <g transform="translate(196, 222)">
    <rect width="48" height="48" rx="12" fill="url(#grad-networking)" filter="url(#shadow)"/>
    <g transform="scale(0.75)">
      <path d="M38.761,32.5265073 C39.336,33.0577669 39.623,33.7701149 39.623,34.6635515 C39.623,35.6370272 39.274,36.4134066 38.574,36.9936901 C37.875,37.5749741 36.935,37.8651159 35.754,37.8651159 C34.822,37.8651159 33.899,37.6660186 32.986,37.269825 L32.986,36.0782428 C34.067,36.4354173 34.99,36.6135043 35.754,36.6135043 C36.508,36.6135043 37.088,36.4454222 37.495,36.1082574 C37.903,35.7710927 38.106,35.2888571 38.106,34.6635515 C38.106,33.4629649 37.347,32.861671 35.828,32.861671 C35.352,32.861671 34.881,32.8866833 34.414,32.9357072 L34.414,31.9532271 L37.54,28.5435611 L33.134,28.5435611 L33.134,27.3219641 L39.193,27.3219641 L39.193,28.4985391 L36.126,31.7451255 C36.176,31.7351206 36.225,31.7301181 36.275,31.7301181 L36.424,31.7301181 C37.407,31.7301181 38.185,31.9962482 38.761,32.5265073 M30.114,32.2663802 C30.718,32.8326569 31.021,33.6110372 31.021,34.6035222 C31.021,35.5769979 30.668,36.3633821 29.964,36.9646759 C29.259,37.5649692 28.331,37.8651159 27.181,37.8651159 C26.169,37.8651159 25.221,37.6660186 24.338,37.269825 L24.338,36.0782428 C25.44,36.4354173 26.382,36.6135043 27.166,36.6135043 C27.92,36.6135043 28.498,36.4434212 28.9,36.101254 C29.302,35.7580863 29.502,35.2648453 29.502,34.6185295 C29.502,33.9141853 29.315,33.4029355 28.937,33.0847801 C28.56,32.7676251 27.945,32.6085474 27.091,32.6085474 C26.476,32.6085474 25.707,32.6585718 24.784,32.7576202 L24.784,31.7751401 L25.068,27.3219641 L30.5,27.3219641 L30.5,28.5435611 L26.318,28.5435611 L26.123,31.5670384 C26.669,31.4669896 27.16,31.4169651 27.597,31.4169651 C28.669,31.4169651 29.508,31.7001035 30.114,32.2663802 M41.261,42.9636072 C37.516,43.6359357 34.233,45.1456735 32,46.3952841 C29.768,45.1456735 26.485,43.6359357 22.74,42.9636072 C21.708,42.7785168 16.566,41.7079937 16.566,38.8245847 C16.566,37.4629194 17.063,36.5424696 18.017,34.8996669 C19.133,32.9737258 20.663,30.3364371 20.663,26.6736474 C20.663,24.1103949 20.004,21.6511932 18.703,19.3530703 C18.792,19.244017 18.882,19.1329627 18.972,19.0229089 C20.927,19.9723729 22.959,20.4526075 25.025,20.4526075 C27.571,20.4526075 29.914,19.7962868 32,18.5016542 C34.086,19.7962868 36.43,20.4526075 38.976,20.4526075 C41.041,20.4526075 43.073,19.9723729 45.029,19.0229089 C45.118,19.1329627 45.208,19.244017 45.297,19.3530703 C43.996,21.6511932 43.337,24.1103949 43.337,26.6736474 C43.337,30.3364371 44.867,32.9737258 45.984,34.8996669 C46.938,36.5424696 47.435,37.4629194 47.435,38.8245847 C47.435,41.7079937 42.292,42.7785168 41.261,42.9636072 M45.337,26.6736474 C45.337,24.2594677 46.019,21.9443364 47.362,19.7922849 C47.589,19.4291074 47.559,18.9608786 47.288,18.6297168 C46.893,18.1454802 46.479,17.6362313 46.07,17.129984 C45.766,16.7527997 45.234,16.6497493 44.809,16.8838637 C42.926,17.9243721 40.963,18.4516298 38.976,18.4516298 C36.576,18.4516298 34.482,17.8083154 32.57,16.4826677 C32.228,16.2445513 31.773,16.2445513 31.431,16.4826677 C29.519,17.8083154 27.424,18.4516298 25.025,18.4516298 C23.037,18.4516298 21.074,17.9243721 19.192,16.8838637 C18.766,16.6497493 18.236,16.7527997 17.931,17.129984 C17.522,17.6362313 17.108,18.1454802 16.712,18.6297168 C16.442,18.9608786 16.411,19.4291074 16.639,19.7922849 C17.982,21.9443364 18.663,24.2594677 18.663,26.6736474 C18.663,29.7981741 17.401,31.9742374 16.286,33.8951761 C15.22,35.7340746 14.566,36.9556715 14.566,38.8245847 C14.566,43.1877167 20.551,44.6034085 22.386,44.9325693 C26.136,45.6068988 29.41,47.1976761 31.497,48.4122696 C31.653,48.5023136 31.826,48.5483361 32,48.5483361 C32.174,48.5483361 32.348,48.5023136 32.503,48.4122696 C34.59,47.1976761 37.865,45.6068988 41.615,44.9325693 C43.449,44.6034085 49.435,43.1877167 49.435,38.8245847 C49.435,36.9556715 48.781,35.7340746 47.714,33.8951761 C46.6,31.9742374 45.337,29.7981741 45.337,26.6736474 M42.068,47.4588037 C37.402,48.2972134 33.468,50.7554146 32,51.7679093 C30.532,50.7554146 26.599,48.2972134 21.933,47.4588037 C19.603,47.0395989 12,45.1786896 12,38.8245847 C12,36.1702878 13.004,34.4384415 14.068,32.6055459 C15.066,30.8857055 16.098,29.1068363 16.098,26.6736474 C16.098,23.0068556 14.071,20.3715679 12.941,19.1869891 C14.095,17.7823027 16.636,14.6807872 18.029,12.8969155 C20.151,14.831861 22.6,15.8853758 25.025,15.8853758 C27.726,15.8853758 29.967,14.8198552 32,12.5487454 C34.033,14.8198552 36.275,15.8853758 38.976,15.8853758 C41.401,15.8853758 43.85,14.831861 45.972,12.8969155 C47.365,14.6807872 49.906,17.7823027 51.06,19.1869891 C49.93,20.3715679 47.903,23.0068556 47.903,26.6736474 C47.903,29.1068363 48.935,30.8857055 49.933,32.6055459 C50.996,34.4384415 52,36.1702878 52,38.8245847 C52,45.1786896 44.398,47.0395989 42.068,47.4588037 M51.662,31.6010551 C50.718,29.9742601 49.903,28.5675728 49.903,26.6736474 C49.903,22.6716918 53.024,20.0714213 53.053,20.0474095 C53.26,19.8793274 53.392,19.6362086 53.419,19.3700786 C53.446,19.1039485 53.365,18.838819 53.196,18.6327183 C53.144,18.5706879 48.049,12.3936696 46.885,10.7978899 C46.709,10.5567721 46.436,10.4066987 46.138,10.3886899 C45.845,10.3696806 45.55,10.4867378 45.347,10.7038439 C43.43,12.7548461 41.167,13.8843981 38.976,13.8843981 C36.56,13.8843981 34.654,12.8008686 32.794,10.3706811 C32.415,9.87643962 31.585,9.87643962 31.206,10.3706811 C29.347,12.8008686 27.441,13.8843981 25.025,13.8843981 C22.833,13.8843981 20.571,12.7548461 18.654,10.7038439 C18.45,10.4857373 18.154,10.3646782 17.863,10.3886899 C17.565,10.4066987 17.291,10.5567721 17.115,10.7978899 C15.951,12.3936696 10.857,18.5706879 10.805,18.6327183 C10.635,18.838819 10.555,19.1039485 10.581,19.3700786 C10.609,19.6362086 10.74,19.8793274 10.948,20.0474095 C10.98,20.0734222 14.098,22.6416772 14.098,26.6736474 C14.098,28.5675728 13.282,29.9742601 12.338,31.6010551 C11.242,33.4899781 10,35.6310243 10,38.8245847 C10,44.1611924 14.328,48.1251293 21.579,49.4287663 C26.895,50.3832327 31.347,53.7598827 31.392,53.7938993 C31.572,53.9319668 31.785,54 32,54 C32.215,54 32.43,53.9309663 32.61,53.7928988 C32.654,53.7588822 37.088,50.3872347 42.421,49.4287663 C49.672,48.1251293 54,44.1611924 54,38.8245847 C54,35.6310243 52.758,33.4899781 51.662,31.6010551" fill="#FFFFFF"/>
    </g>
  </g>
  <text x="220" y="286" text-anchor="middle" font-size="12" font-weight="700" fill="#1e293b">Route 53</text>
  <text x="220" y="300" text-anchor="middle" font-size="9" fill="#64748b">DNS</text>

  <!-- Arrow: Route 53 to CloudFront -->
  <line x1="254" y1="246" x2="348" y2="246" stroke="#64748b" stroke-width="2" marker-end="url(#arrow)"/>

  <!-- ===== ACM (AWS Icon) ===== -->
  <g transform="translate(366, 115)">
    <rect width="42" height="42" rx="10" fill="url(#grad-security)" filter="url(#shadow)"/>
    <g transform="scale(0.65625)">
      <path d="M28.722,30.981 C28.946,31.214 29.042,31.541 28.983,31.858 L28.394,34.998 L31.486,33.143 C31.644,33.047 31.823,33 32,33 C32.178,33 32.357,33.047 32.515,33.143 L35.608,34.998 L35.018,31.852 C34.958,31.535 35.055,31.209 35.279,30.976 L37.94,28.197 L34.355,27.665 C34.041,27.618 33.769,27.426 33.619,27.147 L31.992,24.104 L30.325,27.158 C30.175,27.432 29.906,27.621 29.596,27.668 L26.057,28.204 L28.722,30.981 Z M26.018,36.815 L26.922,31.995 L23.279,28.197 C23.02,27.927 22.933,27.536 23.054,27.183 C23.174,26.829 23.481,26.572 23.851,26.516 L28.806,25.764 L31.122,21.521 C31.298,21.2 31.635,21 32,21 L32.004,21 C32.371,21.002 32.708,21.205 32.882,21.528 L35.146,25.76 L40.147,26.503 C40.517,26.558 40.826,26.814 40.947,27.168 C41.068,27.523 40.981,27.914 40.722,28.184 L37.077,31.988 L37.983,36.816 C38.056,37.203 37.895,37.596 37.572,37.821 C37.249,38.045 36.825,38.06 36.486,37.857 L32,35.166 L27.515,37.857 C27.356,37.953 27.178,38 27,38 C26.8,38 26.6,37.94 26.429,37.821 C26.106,37.596 25.945,37.203 26.018,36.815 L26.018,36.815 Z M12,17.017 L51.997,17.017 L51.997,13 L12,13 L12,17.017 Z M54,52 C54,52.265 53.895,52.52 53.707,52.707 C53.52,52.895 53.266,53 53,53 L48,53 L48,51 L52,51 L51.998,19.017 L12,19.017 L12,51 L41,51 L41,53 L11,53 C10.448,53 10,52.552 10,52 L10,12 C10,11.448 10.448,11 11,11 L52.997,11 C53.55,11 53.997,11.448 53.997,12 L54,52 Z M19,47 L24,47 L24,45 L19,45 L19,47 Z M27,47 L38,47 L38,45 L27,45 L27,47 Z M19,42.997 L24,42.997 L24,40.997 L19,40.997 L19,42.997 Z M27,43 L45,43 L45,41 L27,41 L27,43 Z" fill="#FFFFFF"/>
    </g>
  </g>
  <text x="387" y="171" text-anchor="middle" font-size="11" font-weight="700" fill="#1e293b">ACM</text>
  <text x="387" y="184" text-anchor="middle" font-size="9" fill="#64748b">SSL / TLS</text>

  <!-- Arrow: ACM down to CloudFront -->
  <line x1="387" y1="190" x2="387" y2="216" stroke="#64748b" stroke-width="1.5" marker-end="url(#arrow)"/>

  <!-- ===== CLOUDFRONT (AWS Icon) ===== -->
  <g transform="translate(360, 222)">
    <rect width="48" height="48" rx="12" fill="url(#grad-networking)" filter="url(#shadow)"/>
    <g transform="scale(0.75)">
      <path d="M41.5,43.5 C40.397,43.5 39.5,42.603 39.5,41.5 C39.5,40.397 40.397,39.5 41.5,39.5 C42.603,39.5 43.5,40.397 43.5,41.5 C43.5,42.603 42.603,43.5 41.5,43.5 L41.5,43.5 Z M41.5,37.5 C39.294,37.5 37.5,39.294 37.5,41.5 C37.5,43.706 39.294,45.5 41.5,45.5 C43.706,45.5 45.5,43.706 45.5,41.5 C45.5,39.294 43.706,37.5 41.5,37.5 L41.5,37.5 Z M22.5,32.5 C21.397,32.5 20.5,31.603 20.5,30.5 C20.5,29.397 21.397,28.5 22.5,28.5 C23.603,28.5 24.5,29.397 24.5,30.5 C24.5,31.603 23.603,32.5 22.5,32.5 L22.5,32.5 Z M22.5,26.5 C20.294,26.5 18.5,28.294 18.5,30.5 C18.5,32.706 20.294,34.5 22.5,34.5 C24.706,34.5 26.5,32.706 26.5,30.5 C26.5,28.294 24.706,26.5 22.5,26.5 L22.5,26.5 Z M45.389,47.124 C45.168,46.607 44.936,46.094 44.685,45.591 L42.896,46.486 C43.17,47.035 43.42,47.599 43.656,48.165 C42.82,48.762 41.943,49.288 41.028,49.74 C41.384,48.865 41.694,47.975 41.974,47.012 L40.054,46.454 C39.564,48.134 38.985,49.581 38.184,51.133 C36.357,51.698 34.452,52 32.5,52 C29.465,52 26.567,51.314 23.871,49.976 C22.503,46.615 21.838,43.534 21.838,40.559 C21.838,39.267 22.063,38.196 22.322,36.956 C22.386,36.652 22.45,36.343 22.514,36.024 L20.551,35.638 C20.49,35.949 20.427,36.25 20.365,36.545 C20.094,37.838 19.838,39.06 19.838,40.559 C19.838,43.074 20.274,45.644 21.154,48.354 C16.072,44.724 13,38.854 13,32.5 C13,32.389 13.01,32.273 13.012,32.161 C14.642,31.799 16.123,31.614 17.854,31.571 L17.804,29.572 C16.169,29.612 14.694,29.779 13.163,30.084 C14.081,22.683 19.212,16.394 26.323,14.019 C27.873,14.818 29.02,15.524 30.135,16.37 L31.344,14.776 C30.646,14.248 29.934,13.771 29.146,13.299 C30.244,13.108 31.363,13 32.5,13 C35.032,13 37.532,13.494 39.849,14.439 C39.342,14.593 38.82,14.763 38.243,14.971 L38.923,16.852 C40.316,16.349 41.408,16.04 42.571,15.821 C48.399,19.341 52,25.667 52,32.5 C52,38.156 49.605,43.416 45.389,47.124 L45.389,47.124 Z M43.008,13.749 C39.826,11.95 36.192,11 32.5,11 C30.392,11 28.324,11.301 26.357,11.895 C17.723,14.464 11.568,22.23 11.045,31.196 C11.01,31.625 11,32.062 11,32.5 C11,40.444 15.352,47.707 22.354,51.455 C25.459,53.12 28.968,54 32.5,54 C34.892,54 37.229,53.61 39.437,52.843 C41.684,52.086 43.773,50.963 45.646,49.507 C50.955,45.399 54,39.2 54,32.5 C54,24.732 49.787,17.546 43.008,13.749 L43.008,13.749 Z M38.384,37.411 L37.003,38.858 C34.022,36.015 31.047,34.146 27.637,32.975 L28.287,31.083 C31.979,32.351 35.188,34.362 38.384,37.411 L38.384,37.411 Z M38.444,22.364 C41.282,26.692 42.88,31.444 43.193,36.488 L41.197,36.612 C40.905,31.919 39.417,27.495 36.772,23.46 L38.444,22.364 Z M26.451,26.797 L24.773,25.708 C26.316,23.332 27.639,21.758 29.336,20.278 L30.65,21.786 C29.103,23.135 27.886,24.587 26.451,26.797 L26.451,26.797 Z M34.5,16.5 C35.603,16.5 36.5,17.397 36.5,18.5 C36.5,19.603 35.603,20.5 34.5,20.5 C33.397,20.5 32.5,19.603 32.5,18.5 C32.5,17.397 33.397,16.5 34.5,16.5 L34.5,16.5 Z M34.5,22.5 C36.706,22.5 38.5,20.706 38.5,18.5 C38.5,16.294 36.706,14.5 34.5,14.5 C32.294,14.5 30.5,16.294 30.5,18.5 C30.5,20.706 32.294,22.5 34.5,22.5 L34.5,22.5 Z" fill="#FFFFFF"/>
    </g>
  </g>
  <text x="384" y="286" text-anchor="middle" font-size="12" font-weight="700" fill="#1e293b">CloudFront</text>
  <text x="384" y="300" text-anchor="middle" font-size="9" fill="#64748b">CDN + HTTPS</text>

  <!-- Arrow: CloudFront to EC2 -->
  <line x1="418" y1="246" x2="498" y2="246" stroke="#64748b" stroke-width="2" marker-end="url(#arrow)"/>

  <!-- ===== EC2 INSTANCE BOX ===== -->
  <rect x="508" y="115" width="615" height="398" rx="12" fill="url(#ec2Bg)" stroke="#f97316" stroke-width="1.5"/>

  <!-- EC2 Icon Badge -->
  <g transform="translate(514, 120)">
    <rect width="36" height="36" rx="8" fill="url(#grad-compute)" filter="url(#shadow)"/>
    <g transform="scale(0.5625)">
      <path d="M22,41 L41,41 L41,23 L22,23 L22,41 Z M43,23 L46,23 L46,25 L43,25 L43,27 L46,27 L46,29 L43,29 L43,31 L46,31 L46,33 L43,33 L43,36 L46,36 L46,38 L43,38 L43,40 L46,40 L46,42 L42.863,42 C42.608,42.587 42.023,43 41.344,43 L41,43 L41,46 L39,46 L39,43 L37,43 L37,46 L35,46 L35,43 L33,43 L33,46 L31,46 L31,43 L29,43 L29,46 L27,46 L27,43 L24,43 L24,46 L22,46 L22,43 L21.656,43 C20.977,43 20.392,42.587 20.137,42 L18,42 L18,40 L20,40 L20,38 L18,38 L18,36 L20,36 L20,33 L18,33 L18,31 L20,31 L20,29 L18,29 L18,27 L20,27 L20,25 L18,25 L18,23 L20,23 L20,22.656 C20,21.743 20.743,21 21.656,21 L22,21 L22,18 L24,18 L24,21 L27,21 L27,18 L29,18 L29,21 L31,21 L31,18 L33,18 L33,21 L35,21 L35,18 L37,18 L37,21 L39,21 L39,18 L41,18 L41,21 L41.344,21 C42.257,21 43,21.743 43,22.656 L43,23 Z M32,52 L12,52 L12,32 L16,32 L16,30 L11.843,30 C10.826,30 10,30.827 10,31.843 L10,52.157 C10,53.173 10.826,54 11.843,54 L32.157,54 C33.174,54 34,53.173 34,52.157 L34,48 L32,48 L32,52 Z M54,11.843 L54,32.157 C54,33.173 53.174,34 52.157,34 L48,34 L48,32 L52,32 L52,12 L32,12 L32,16 L30,16 L30,11.843 C30,10.827 30.826,10 31.843,10 L52.157,10 C53.174,10 54,10.827 54,11.843 L54,11.843 Z" fill="#FFFFFF"/>
    </g>
  </g>
  <text x="558" y="145" font-size="11" font-weight="700" fill="#9a3412">EC2 Instance (Ubuntu)</text>

  <!-- Request Flow label -->
  <text x="818" y="180" text-anchor="middle" font-size="10" font-weight="600" fill="#9a3412" letter-spacing="1">REQUEST FLOW</text>
  <line x1="570" y1="187" x2="1065" y2="187" stroke="#fdba74" stroke-width="1"/>

  <!-- Nginx -->
  <g filter="url(#shadow)">
    <rect x="540" y="202" width="130" height="65" rx="8" fill="#059669"/>
    <text x="605" y="231" text-anchor="middle" font-size="14" font-weight="700" fill="#fff">Nginx</text>
    <text x="605" y="250" text-anchor="middle" font-size="9" fill="#a7f3d0">Reverse Proxy :80</text>
  </g>
  <line x1="670" y1="234" x2="700" y2="234" stroke="#64748b" stroke-width="2" marker-end="url(#arrow)"/>

  <!-- Gunicorn -->
  <g filter="url(#shadow)">
    <rect x="712" y="202" width="130" height="65" rx="8" fill="#059669"/>
    <text x="777" y="231" text-anchor="middle" font-size="14" font-weight="700" fill="#fff">Gunicorn</text>
    <text x="777" y="250" text-anchor="middle" font-size="9" fill="#a7f3d0">WSGI :8000</text>
  </g>
  <line x1="842" y1="234" x2="872" y2="234" stroke="#64748b" stroke-width="2" marker-end="url(#arrow)"/>

  <!-- Flask -->
  <g filter="url(#shadow)">
    <rect x="884" y="202" width="130" height="65" rx="8" fill="#1e293b"/>
    <text x="949" y="231" text-anchor="middle" font-size="14" font-weight="700" fill="#fff">Flask</text>
    <text x="949" y="250" text-anchor="middle" font-size="9" fill="#94a3b8">Application</text>
  </g>

  <!-- Application Stack label -->
  <text x="818" y="300" text-anchor="middle" font-size="10" font-weight="600" fill="#9a3412" letter-spacing="1">APPLICATION STACK</text>
  <line x1="570" y1="307" x2="1065" y2="307" stroke="#fdba74" stroke-width="1"/>

  <!-- Pandas -->
  <g filter="url(#shadow)">
    <rect x="545" y="322" width="125" height="55" rx="8" fill="#1e40af"/>
    <text x="607" y="347" text-anchor="middle" font-size="12" font-weight="700" fill="#fff">Pandas</text>
    <text x="607" y="364" text-anchor="middle" font-size="9" fill="#bfdbfe">Data Processing</text>
  </g>

  <!-- Plotly -->
  <g filter="url(#shadow)">
    <rect x="690" y="322" width="125" height="55" rx="8" fill="#1e40af"/>
    <text x="752" y="347" text-anchor="middle" font-size="12" font-weight="700" fill="#fff">Plotly</text>
    <text x="752" y="364" text-anchor="middle" font-size="9" fill="#bfdbfe">Visualizations</text>
  </g>

  <!-- TensorFlow / Keras -->
  <g filter="url(#shadow)">
    <rect x="835" y="322" width="155" height="55" rx="8" fill="#c2410c"/>
    <text x="912" y="347" text-anchor="middle" font-size="12" font-weight="700" fill="#fff">TensorFlow / Keras</text>
    <text x="912" y="364" text-anchor="middle" font-size="9" fill="#fed7aa">ML Model</text>
  </g>

  <!-- Data Ingestion label -->
  <text x="818" y="412" text-anchor="middle" font-size="10" font-weight="600" fill="#9a3412" letter-spacing="1">DATA INGESTION</text>
  <line x1="570" y1="419" x2="1065" y2="419" stroke="#fdba74" stroke-width="1"/>

  <!-- US Census Bureau -->
  <g filter="url(#shadow)">
    <rect x="580" y="433" width="190" height="55" rx="8" fill="#0f766e"/>
    <text x="675" y="458" text-anchor="middle" font-size="12" font-weight="700" fill="#fff">US Census Bureau</text>
    <text x="675" y="475" text-anchor="middle" font-size="9" fill="#99f6e4">ACS Survey Data (CSV/Excel)</text>
  </g>

  <!-- Zillow -->
  <g filter="url(#shadow)">
    <rect x="800" y="433" width="190" height="55" rx="8" fill="#0f766e"/>
    <text x="895" y="458" text-anchor="middle" font-size="12" font-weight="700" fill="#fff">Zillow</text>
    <text x="895" y="475" text-anchor="middle" font-size="9" fill="#99f6e4">Home Value Index</text>
  </g>

  <!-- ===== BOTTOM: INFRASTRUCTURE AS CODE ===== -->
  <rect x="24" y="548" width="1112" height="155" rx="12" fill="#f0fdf4" stroke="#86efac" stroke-width="1" opacity="0.7"/>
  <rect x="36" y="556" width="175" height="22" rx="4" fill="#16a34a"/>
  <text x="123" y="571" text-anchor="middle" font-size="10" font-weight="700" fill="#fff">Infrastructure as Code</text>

  <!-- Terraform -->
  <g filter="url(#shadow)">
    <rect x="50" y="600" width="140" height="75" rx="10" fill="#7c3aed"/>
    <text x="120" y="634" text-anchor="middle" font-size="15" font-weight="700" fill="#fff">Terraform</text>
    <text x="120" y="654" text-anchor="middle" font-size="9" fill="#ddd6fe">Provisioning</text>
  </g>

  <!-- Arrow: Terraform to S3 -->
  <line x1="190" y1="624" x2="242" y2="604" stroke="#64748b" stroke-width="1.5" marker-end="url(#arrow)"/>
  <!-- Arrow: Terraform to DynamoDB -->
  <line x1="190" y1="648" x2="242" y2="658" stroke="#64748b" stroke-width="1.5" marker-end="url(#arrow)"/>

  <!-- S3 (AWS Icon) -->
  <g transform="translate(254, 584)">
    <rect width="42" height="42" rx="10" fill="url(#grad-storage)" filter="url(#shadow)"/>
    <g transform="scale(0.65625) translate(8, 8)">
      <path d="M39.7588,25.9482 L39.9928,24.1312 C42.1658,25.3852 42.8418,26.1212 43.0368,26.4242 C42.7128,26.4852 41.8318,26.5092 39.7588,25.9482 L39.7588,25.9482 Z M22.4998,13.0002 C12.1248,13.0002 5.3818,10.4882 4.9998,8.6962 L4.9998,8.5112 C5.3488,7.3922 11.1398,4.0002 22.4998,4.0002 C33.8398,4.0002 39.6318,7.3812 39.9998,8.5052 L39.9998,8.6162 C39.7238,10.4462 32.9608,13.0002 22.4998,13.0002 L22.4998,13.0002 Z M37.8178,25.3622 C33.0528,23.7972 26.9118,20.9792 24.5938,19.8882 C24.5348,18.7862 23.6278,17.9062 22.5118,17.9062 C21.3578,17.9062 20.4178,18.8452 20.4178,20.0002 C20.4178,21.1542 21.3578,22.0942 22.5118,22.0942 C22.9688,22.0942 23.3888,21.9422 23.7328,21.6932 C26.1318,22.8222 32.6188,25.7982 37.5578,27.3802 L35.8368,40.7242 C35.5828,42.3522 30.9188,44.0002 22.4968,44.0002 C14.0718,44.0002 9.4048,42.3522 9.1548,40.7512 L5.4348,11.8142 C8.9448,13.9152 15.7488,15.0002 22.4998,15.0002 C29.2498,15.0002 36.0538,13.9152 39.5648,11.8152 L37.8178,25.3622 Z M41.9998,8.5002 C41.9998,5.4312 33.6608,2.0002 22.4998,2.0002 C11.3388,2.0002 2.9998,5.4312 2.9998,8.5002 L2.9998,9.0432 L7.1738,41.0332 C7.8748,45.5162 18.1228,46.0002 22.4968,46.0002 C26.8688,46.0002 37.1128,45.5162 37.8178,41.0072 L39.5008,27.9472 C40.7778,28.2792 41.8118,28.4562 42.6158,28.4552 C43.6058,28.4552 44.2728,28.2032 44.6968,27.6972 C45.0468,27.2812 45.1848,26.7562 45.0848,26.2212 C44.8568,25.0002 43.4028,23.7122 40.3698,22.0442 L40.2698,21.9892 L41.9998,9.0442 L41.9998,8.5002 Z" fill="#FFFFFF"/>
    </g>
  </g>
  <text x="275" y="640" text-anchor="middle" font-size="11" font-weight="700" fill="#1e293b">Amazon S3</text>
  <text x="275" y="654" text-anchor="middle" font-size="9" fill="#64748b">Terraform State</text>

  <!-- DynamoDB (AWS Icon) -->
  <g transform="translate(254, 660)">
    <rect width="42" height="42" rx="10" fill="url(#grad-database)" filter="url(#shadow)"/>
    <g transform="scale(0.65625)">
      <path d="M46.5858287,25.2492763 L43.0008475,25.2492763 C42.6728493,25.2492763 42.3658509,25.086523 42.1788519,24.8145936 C41.9918528,24.5416533 41.9488531,24.1939071 42.0648525,23.8835638 L44.5578394,17.162156 L35.6448862,17.162156 L31.5539077,26.2601663 L36.0008843,26.2601663 C36.3218827,26.2601663 36.6238811,26.4158434 36.8128801,26.6806966 C36.9998791,26.943528 37.0518788,27.2821762 36.9488794,27.5904976 L33.2888986,38.6910812 L46.5858287,25.2492763 Z M49.7068123,24.9530855 L31.7079069,43.1491063 C31.5159079,43.3442081 31.2589093,43.4452971 31.0009106,43.4452971 C30.8189116,43.4452971 30.6379125,43.3957635 30.4759134,43.2946744 C30.0809155,43.0480173 29.9049164,42.5597574 30.0529156,42.1149658 L34.6128916,28.2819464 L30.0009159,28.2819464 C29.6609177,28.2819464 29.3449193,28.1070624 29.1599203,27.8189588 C28.9769213,27.5288333 28.9499214,27.1659238 29.0909207,26.8525479 L34.0908944,15.7327574 C34.2528935,15.3718697 34.6078917,15.1403759 35.0008896,15.1403759 L46.0008318,15.1403759 C46.32883,15.1403759 46.6358284,15.3031292 46.8228274,15.5750586 C47.0098265,15.8479989 47.0528262,16.1957451 46.9378268,16.5060883 L44.44384,23.2274962 L48.999816,23.2274962 C49.4038139,23.2274962 49.769812,23.4741534 49.9238111,23.8512154 C50.0788103,24.2292882 49.9928108,24.663971 49.7068123,24.9530855 L49.7068123,24.9530855 Z M41.0008581,44.2196388 C38.2908723,46.1059597 33.3138985,47.1016863 28.5329236,47.1016863 C23.7169489,47.1016863 18.6959753,46.0928181 15.9999895,44.1781923 L16.0009895,47.9943023 C16.0009895,49.6582273 20.7689644,51.9782199 28.5329236,51.9782199 C36.0278842,51.9782199 41.0008581,49.2761108 41.0008581,47.4888572 L41.0008581,44.2196388 Z M43.0648472,40.9504204 C43.0648472,41.1374351 43.0328474,41.3173735 43.0008475,41.4963011 L43.0008475,47.4888572 C43.0008475,51.0795387 36.5108817,54 28.5329236,54 C21.6299599,54 14.6619965,52.1106465 14.0599997,48.4997473 L14.001,48.4997473 L14,43.4452971 L14,30.3037265 L14,16.1512659 L14.001,16.1512659 C14.001,12.1552176 21.4879606,10 28.5329236,10 C32.4739029,10 36.262883,10.6398934 38.9298689,11.755916 L38.163873,13.6240408 C35.7318858,12.6050636 32.2209042,12.0217801 28.5329236,12.0217801 C20.7689644,12.0217801 16.0009895,14.4266875 16.0009895,16.1512659 C16.0009895,17.8758443 20.7689644,20.2807517 28.5329236,20.2807517 C28.7279226,20.2807517 28.9319215,20.2817626 29.1289205,20.2736755 L29.2069201,22.2934338 C28.9819212,22.3025318 28.7579224,22.3025318 28.5329236,22.3025318 C23.7159489,22.3025318 18.6959753,21.2936636 15.9999895,19.3790378 L15.9999895,23.7369848 L16.0009895,23.7369848 L16.0009895,23.7541699 C16.0059895,24.2838763 16.4899869,24.8974866 17.3649823,25.4736939 C19.3469719,26.7615678 22.9149531,27.642053 26.9039322,27.8250241 L26.8129326,29.8447824 C22.6869543,29.6547351 19.0629734,28.7762717 16.7269857,27.4287552 C16.4169873,27.7269678 16.0009895,28.4851353 16.0009895,28.8955567 C16.0009895,30.6201351 20.7689644,33.0250425 28.5329236,33.0250425 C29.2709197,33.0250425 29.9979159,32.9997703 30.6949122,32.9502366 L30.8359115,34.9669623 C30.0919154,35.0205394 29.3169195,35.0468226 28.5329236,35.0468226 C23.7159489,35.0468226 18.6959753,34.0379543 15.9999895,32.1233286 L15.9999895,35.7928594 L16.0009895,35.7928594 C16.0059895,36.339751 16.4899869,36.9533612 17.3649823,37.5295685 C19.6329704,39.0044571 23.9139479,39.9233562 28.5329236,39.9233562 L28.8629219,39.9233562 L28.8629219,41.9451362 L28.5329236,41.9451362 C23.7549487,41.9451362 18.6729754,40.9372789 16.0009895,39.4017369 C15.6789912,39.6999495 16.0009895,40.4126269 16.0009895,40.9504204 C16.0009895,42.6749989 20.7689644,45.0799063 28.5329236,45.0799063 C36.2978828,45.0799063 41.0648577,42.6749989 41.0648577,40.9504204 C41.0648577,40.3408537 40.4658609,39.7757662 39.9728635,39.4118458 C39.5638656,39.658503 39.113868,39.8950512 38.6008707,40.1113817 L37.8328747,38.2442678 C38.3638719,38.0208611 38.8228695,37.7812802 39.1968675,37.5326012 C40.2978617,36.798695 41.0008581,35.7544456 41.0008581,35.3581767 L43.0008475,35.3581767 C43.0008475,36.2983045 42.3798508,37.3051509 41.583855,38.1330699 C42.7758487,39.1732757 43.0648472,40.2114598 43.0648472,40.9504204 L43.0648472,40.9504204 Z M17.1419835,48.3885494 C17.9329793,48.796949 18.8579745,49.1608694 19.893969,49.4691908 L20.457966,47.5292928 C19.5419709,47.2573634 18.7319751,46.9399439 18.0519787,46.5881542 L17.1419835,48.3885494 Z M19.893969,37.3385103 L20.457966,35.3996232 C19.5419709,35.1266829 18.7319751,34.8102743 18.0519787,34.4584846 L17.1419835,36.2578689 C17.9329793,36.6672793 18.8579745,37.0301889 19.893969,37.3385103 L19.893969,37.3385103 Z M17.1419835,24.1281992 L18.0519787,22.3278041 C18.7319751,22.6795938 19.5419709,22.9960024 20.457966,23.2689427 L19.893969,25.2088407 C18.8579745,24.9005192 17.9329793,24.5365988 17.1419835,24.1281992 L17.1419835,24.1281992 Z" fill="#FFFFFF"/>
    </g>
  </g>
  <text x="275" y="716" text-anchor="middle" font-size="11" font-weight="700" fill="#1e293b">DynamoDB</text>

  <!-- Terraform provisioning arrows (dashed) -->
  <text x="490" y="607" text-anchor="middle" font-size="10" fill="#64748b" font-style="italic">provisions</text>
  <line x1="430" y1="614" x2="570" y2="614" stroke="#64748b" stroke-width="1.2" stroke-dasharray="6 3"/>
  <line x1="570" y1="614" x2="570" y2="520" stroke="#64748b" stroke-width="1.2" stroke-dasharray="6 3" marker-end="url(#arrow)"/>

  <line x1="430" y1="634" x2="500" y2="634" stroke="#64748b" stroke-width="1.2" stroke-dasharray="6 3"/>
  <line x1="500" y1="634" x2="500" y2="535" stroke="#64748b" stroke-width="1.2" stroke-dasharray="6 3"/>
  <line x1="500" y1="535" x2="220" y2="535" stroke="#64748b" stroke-width="1.2" stroke-dasharray="6 3"/>
  <line x1="220" y1="535" x2="220" y2="306" stroke="#64748b" stroke-width="1.2" stroke-dasharray="6 3" marker-end="url(#arrow)"/>

  <line x1="430" y1="654" x2="515" y2="654" stroke="#64748b" stroke-width="1.2" stroke-dasharray="6 3"/>
  <line x1="515" y1="654" x2="515" y2="545" stroke="#64748b" stroke-width="1.2" stroke-dasharray="6 3"/>
  <line x1="515" y1="545" x2="384" y2="545" stroke="#64748b" stroke-width="1.2" stroke-dasharray="6 3"/>
  <line x1="384" y1="545" x2="384" y2="306" stroke="#64748b" stroke-width="1.2" stroke-dasharray="6 3" marker-end="url(#arrow)"/>

  <!-- GitHub -->
  <g filter="url(#shadow)">
    <rect x="780" y="598" width="135" height="75" rx="10" fill="#1e293b"/>
    <text x="847" y="632" text-anchor="middle" font-size="15" font-weight="700" fill="#fff">GitHub</text>
    <text x="847" y="652" text-anchor="middle" font-size="9" fill="#94a3b8">Source Control</text>
  </g>

  <!-- Python -->
  <g filter="url(#shadow)">
    <rect x="945" y="598" width="165" height="75" rx="10" fill="#1d4ed8"/>
    <text x="1027" y="630" text-anchor="middle" font-size="15" font-weight="700" fill="#fff">Python 3.x</text>
    <text x="1027" y="650" text-anchor="middle" font-size="9" fill="#bfdbfe">Flask + Pandas + Plotly</text>
    <text x="1027" y="663" text-anchor="middle" font-size="9" fill="#bfdbfe">TensorFlow / Keras</text>
  </g>

  <!-- Legend -->
  <g transform="translate(24, 490)">
    <text x="0" y="12" font-size="10" font-weight="600" fill="#475569">Legend:</text>
    <line x1="55" y1="8" x2="85" y2="8" stroke="#64748b" stroke-width="2" marker-end="url(#arrow)"/>
    <text x="92" y="12" font-size="9" fill="#64748b">Request flow</text>
    <line x1="160" y1="8" x2="200" y2="8" stroke="#64748b" stroke-width="1.2" stroke-dasharray="6 3"/>
    <text x="207" y="12" font-size="9" fill="#64748b">Provisioning</text>
    <rect x="275" y="0" width="16" height="16" rx="4" fill="url(#grad-networking)"/>
    <rect x="295" y="0" width="16" height="16" rx="4" fill="url(#grad-compute)"/>
    <rect x="315" y="0" width="16" height="16" rx="4" fill="url(#grad-security)"/>
    <rect x="335" y="0" width="16" height="16" rx="4" fill="url(#grad-storage)"/>
    <rect x="355" y="0" width="16" height="16" rx="4" fill="url(#grad-database)"/>
    <text x="380" y="12" font-size="9" fill="#64748b">Official AWS Service Icons</text>
  </g>
</svg>
